<svg xmlns="http://www.w3.org/2000/svg" viewBox="0 0 900 450">
  <rect width="900" height="450" fill="#0038a8"/>
  <rect y="225" width="900" height="225" fill="#ce1126"/>
  <path d="M0,0 L450,225 L0,450 Z" fill="#fff"/>
  <path d="M225,225 L225,100 L150,150 L225,225 L300,150 Z" fill="#fcd116"/>
  <circle cx="225" cy="225" r="40" fill="#fcd116"/>
  <g fill="#fcd116">
    <path d="M225,185 L230,200 L245,200 L233,209 L238,224 L225,215 L212,224 L217,209 L205,200 L220,200 Z"/>
    <path d="M165,205 L170,220 L185,220 L173,229 L178,244 L165,235 L152,244 L157,229 L145,220 L160,220 Z"/>
    <path d="M285,205 L290,220 L305,220 L293,229 L298,244 L285,235 L272,244 L277,229 L265,220 L280,220 Z"/>
  </g>
</svg>
